<?xml version="1.0" encoding="UTF-8"?>
<svg width="134px" height="33px" viewBox="0 0 134 33" version="1.1" xmlns="http://www.w3.org/2000/svg" xmlns:xlink="http://www.w3.org/1999/xlink">
    <title>Group</title>
    <g id="Default" stroke="none" stroke-width="1" fill="none" fill-rule="evenodd">
        <g id="Desktop" transform="translate(-856.000000, -20.000000)">
            <g id="Group" transform="translate(857.000000, 21.000000)">
                <rect id="Rectangle" stroke="#FFFFFF" stroke-width="2" x="0" y="0" width="132" height="31" rx="4"></rect>
                <path d="M38.0253906,20.1171875 C39.0253906,20.1171875 39.8310547,19.8535156 40.4423828,19.3261719 C41.0537109,18.7988281 41.3925781,18.0761719 41.4589844,17.1582031 L41.4589844,17.1582031 L39.7011719,17.1582031 C39.6621094,17.6777344 39.5087891,18.0615234 39.2412109,18.3095703 C38.9736328,18.5576172 38.5683594,18.6816406 38.0253906,18.6816406 C37.4238281,18.6816406 36.9833984,18.46875 36.7041016,18.0429688 C36.4248047,17.6171875 36.2851562,16.9433594 36.2851562,16.0214844 L36.2851562,16.0214844 L36.2851562,15.3769531 C36.2929688,14.4941406 36.4423828,13.8427734 36.7333984,13.4228516 C37.0244141,13.0029297 37.4628906,12.7929688 38.0488281,12.7929688 C38.5878906,12.7929688 38.9892578,12.9169922 39.2529297,13.1650391 C39.5166016,13.4130859 39.6699219,13.8125 39.7128906,14.3632812 L39.7128906,14.3632812 L41.4707031,14.3632812 C41.3769531,13.4101562 41.0292969,12.6699219 40.4277344,12.1425781 C39.8261719,11.6152344 39.0332031,11.3515625 38.0488281,11.3515625 C37.3378906,11.3515625 36.7138672,11.5185547 36.1767578,11.8525391 C35.6396484,12.1865234 35.2265625,12.6660156 34.9375,13.2910156 C34.6484375,13.9160156 34.5039062,14.6386719 34.5039062,15.4589844 L34.5039062,15.4589844 L34.5039062,15.9804688 C34.5039062,17.265625 34.8173828,18.2763672 35.4443359,19.0126953 C36.0712891,19.7490234 36.9316406,20.1171875 38.0253906,20.1171875 Z M47.128571,20.1171875 C47.8434148,20.1171875 48.4772038,19.9453125 49.0299382,19.6015625 C49.5826726,19.2578125 50.0074773,18.7695312 50.3043523,18.1367188 C50.6012273,17.5039062 50.7496648,16.7675781 50.7496648,15.9277344 L50.7496648,15.9277344 L50.7496648,15.546875 C50.7496648,14.7109375 50.5982976,13.9736328 50.2955632,13.3349609 C49.9928288,12.6962891 49.5650944,12.2060547 49.0123601,11.8642578 C48.4596257,11.5224609 47.8277898,11.3515625 47.1168523,11.3515625 C46.4059148,11.3515625 45.7740788,11.5224609 45.2213444,11.8642578 C44.6686101,12.2060547 44.2408757,12.6962891 43.9381413,13.3349609 C43.6354069,13.9736328 43.4840398,14.7128906 43.4840398,15.5527344 L43.4840398,15.5527344 L43.4840398,15.9746094 C43.487946,16.7949219 43.6422429,17.5205078 43.9469304,18.1513672 C44.2516179,18.7822266 44.6813054,19.2675781 45.2359929,19.6074219 C45.7906804,19.9472656 46.4215398,20.1171875 47.128571,20.1171875 Z M47.128571,18.6757812 C46.5270085,18.6757812 46.066071,18.4355469 45.7457585,17.9550781 C45.425446,17.4746094 45.2652898,16.7988281 45.2652898,15.9277344 L45.2652898,15.9277344 L45.2652898,15.5117188 C45.269196,14.625 45.4313054,13.9521484 45.7516179,13.4931641 C46.0719304,13.0341797 46.5270085,12.8046875 47.1168523,12.8046875 C47.7106023,12.8046875 48.1676335,13.0371094 48.487946,13.5019531 C48.8082585,13.9667969 48.9684148,14.6464844 48.9684148,15.5410156 L48.9684148,15.5410156 L48.9684148,15.9570312 C48.9645085,16.84375 48.8043523,17.5185547 48.487946,17.9814453 C48.1715398,18.4443359 47.7184148,18.6757812 47.128571,18.6757812 Z M54.913392,20 L54.913392,14.3867188 L58.335267,20 L60.0930795,20 L60.0930795,11.46875 L58.3411264,11.46875 L58.3411264,17.09375 L54.913392,11.46875 L53.1555795,11.46875 L53.1555795,20 L54.913392,20 Z M66.3954786,20 L66.3954786,12.8925781 L69.0087599,12.8925781 L69.0087599,11.46875 L62.0595411,11.46875 L62.0595411,12.8925781 L64.6376661,12.8925781 L64.6376661,20 L66.3954786,20 Z M71.5845965,20 L72.170534,18.2421875 L75.2525653,18.2421875 L75.8443621,20 L77.7135028,20 L74.5201434,11.46875 L72.8912371,11.46875 L69.7154559,20 L71.5845965,20 Z M74.7779559,16.8183594 L72.6451434,16.8183594 L73.7056903,13.625 L74.7779559,16.8183594 Z M82.7795737,20.1171875 C83.7795737,20.1171875 84.5852378,19.8535156 85.1965659,19.3261719 C85.8078941,18.7988281 86.1467612,18.0761719 86.2131675,17.1582031 L86.2131675,17.1582031 L84.455355,17.1582031 C84.4162925,17.6777344 84.2629722,18.0615234 83.9953941,18.3095703 C83.7278159,18.5576172 83.3225425,18.6816406 82.7795737,18.6816406 C82.1780112,18.6816406 81.7375816,18.46875 81.4582847,18.0429688 C81.1789878,17.6171875 81.0393394,16.9433594 81.0393394,16.0214844 L81.0393394,16.0214844 L81.0393394,15.3769531 C81.0471519,14.4941406 81.1965659,13.8427734 81.4875816,13.4228516 C81.7785972,13.0029297 82.2170737,12.7929688 82.8030112,12.7929688 C83.3420737,12.7929688 83.7434409,12.9169922 84.0071128,13.1650391 C84.2707847,13.4130859 84.424105,13.8125 84.4670737,14.3632812 L84.4670737,14.3632812 L86.2248862,14.3632812 C86.1311362,13.4101562 85.78348,12.6699219 85.1819175,12.1425781 C84.580355,11.6152344 83.7873862,11.3515625 82.8030112,11.3515625 C82.0920737,11.3515625 81.4680503,11.5185547 80.9309409,11.8525391 C80.3938316,12.1865234 79.9807456,12.6660156 79.6916831,13.2910156 C79.4026206,13.9160156 79.2580894,14.6386719 79.2580894,15.4589844 L79.2580894,15.4589844 L79.2580894,15.9804688 C79.2580894,17.265625 79.5715659,18.2763672 80.1985191,19.0126953 C80.8254722,19.7490234 81.6858237,20.1171875 82.7795737,20.1171875 Z M92.1347073,20 L92.1347073,12.8925781 L94.7479885,12.8925781 L94.7479885,11.46875 L87.7987698,11.46875 L87.7987698,12.8925781 L90.3768948,12.8925781 L90.3768948,20 L92.1347073,20 Z" id="CONTACT" fill="#FFFFFF" fill-rule="nonzero"></path>
            </g>
        </g>
    </g>
</svg>