<?xml version="1.0" encoding="UTF-8"?>
<svg width="157px" height="41px" viewBox="0 0 157 41" version="1.1" xmlns="http://www.w3.org/2000/svg" xmlns:xlink="http://www.w3.org/1999/xlink">
    <title>Group 2</title>
    <g id="Default" stroke="none" stroke-width="1" fill="none" fill-rule="evenodd">
        <g id="Desktop" transform="translate(-552.000000, -349.000000)">
            <g id="Group-2" transform="translate(554.000000, 351.000000)">
                <rect id="Rectangle" stroke="#FFFFFF" stroke-width="2.5" x="0" y="0" width="153" height="37" rx="7"></rect>
                <path d="M44.278125,24.15625 C45.5229167,24.15625 46.5085938,23.8763021 47.2351563,23.3164062 C47.9617188,22.7565104 48.325,22.0026042 48.325,21.0546875 C48.325,20.4713542 48.2,19.9622396 47.95,19.5273438 C47.7,19.0924479 47.3067708,18.7070312 46.7703125,18.3710938 C46.2338542,18.0351562 45.5229167,17.7356771 44.6375,17.4726562 C43.7520833,17.2096354 43.1166667,16.9388021 42.73125,16.6601562 C42.3458333,16.3815104 42.153125,16.0338542 42.153125,15.6171875 C42.153125,15.1223958 42.3315104,14.7369792 42.6882813,14.4609375 C43.0450521,14.1848958 43.5463542,14.046875 44.1921875,14.046875 C44.8848958,14.046875 45.4174479,14.2148438 45.7898438,14.5507812 C46.1622396,14.8867188 46.3484375,15.3515625 46.3484375,15.9453125 L46.3484375,15.9453125 L48.3171875,15.9453125 C48.3171875,15.2890625 48.1401042,14.6914062 47.7859375,14.1523438 C47.4317708,13.6132812 46.9447917,13.1979167 46.325,12.90625 C45.7052083,12.6145833 44.9994792,12.46875 44.2078125,12.46875 C43.0151042,12.46875 42.0450521,12.765625 41.2976563,13.359375 C40.5502604,13.953125 40.1765625,14.7083333 40.1765625,15.625 C40.1765625,16.671875 40.6947917,17.5208333 41.73125,18.171875 C42.2729167,18.5104167 43.0020833,18.8177083 43.91875,19.09375 C44.8354167,19.3697917 45.4695313,19.6432292 45.8210938,19.9140625 C46.1726563,20.1848958 46.3484375,20.5703125 46.3484375,21.0703125 C46.3484375,21.5286458 46.1752604,21.8971354 45.8289063,22.1757812 C45.4825521,22.4544271 44.965625,22.59375 44.278125,22.59375 C43.48125,22.59375 42.8692708,22.4166667 42.4421875,22.0625 C42.0151042,21.7083333 41.8015625,21.2083333 41.8015625,20.5625 L41.8015625,20.5625 L39.825,20.5625 C39.825,21.2760417 40.0164063,21.9010417 40.3992188,22.4375 C40.7820313,22.9739583 41.3184896,23.3945312 42.0085938,23.6992188 C42.6986979,24.0039062 43.4552083,24.15625 44.278125,24.15625 Z M54.2984375,24.15625 C55.0015625,24.15625 55.6356771,24.0169271 56.2007813,23.7382812 C56.7658854,23.4596354 57.2177083,23.0677083 57.55625,22.5625 L57.55625,22.5625 L56.5328125,21.5859375 C55.9859375,22.2890625 55.2776042,22.640625 54.4078125,22.640625 C53.7880208,22.640625 53.2736979,22.4375 52.8648438,22.03125 C52.4559896,21.625 52.2229167,21.0729167 52.165625,20.375 L52.165625,20.375 L57.6890625,20.375 L57.6890625,19.609375 C57.6890625,18.265625 57.3752604,17.2265625 56.7476563,16.4921875 C56.1200521,15.7578125 55.2307292,15.390625 54.0796875,15.390625 C53.3557292,15.390625 52.6994792,15.5755208 52.1109375,15.9453125 C51.5223958,16.3151042 51.0653646,16.8320312 50.7398438,17.4960938 C50.4143229,18.1601562 50.2515625,18.9140625 50.2515625,19.7578125 L50.2515625,19.7578125 L50.2515625,19.9921875 C50.2515625,21.2526042 50.6252604,22.2617188 51.3726563,23.0195312 C52.1200521,23.7773438 53.0953125,24.15625 54.2984375,24.15625 Z M55.8140625,18.984375 L52.196875,18.984375 C52.2854167,18.3333333 52.4898438,17.8255208 52.8101563,17.4609375 C53.1304688,17.0963542 53.5510417,16.9140625 54.071875,16.9140625 C54.5979167,16.9140625 55.009375,17.0768229 55.30625,17.4023438 C55.603125,17.7278646 55.7723958,18.2083333 55.8140625,18.84375 L55.8140625,18.84375 L55.8140625,18.984375 Z M63.584375,24.15625 C64.2875,24.15625 64.9216146,24.0169271 65.4867188,23.7382812 C66.0518229,23.4596354 66.5036458,23.0677083 66.8421875,22.5625 L66.8421875,22.5625 L65.81875,21.5859375 C65.271875,22.2890625 64.5635417,22.640625 63.69375,22.640625 C63.0739583,22.640625 62.5596354,22.4375 62.1507813,22.03125 C61.7419271,21.625 61.5088542,21.0729167 61.4515625,20.375 L61.4515625,20.375 L66.975,20.375 L66.975,19.609375 C66.975,18.265625 66.6611979,17.2265625 66.0335938,16.4921875 C65.4059896,15.7578125 64.5166667,15.390625 63.365625,15.390625 C62.6416667,15.390625 61.9854167,15.5755208 61.396875,15.9453125 C60.8083333,16.3151042 60.3513021,16.8320312 60.0257813,17.4960938 C59.7002604,18.1601562 59.5375,18.9140625 59.5375,19.7578125 L59.5375,19.7578125 L59.5375,19.9921875 C59.5375,21.2526042 59.9111979,22.2617188 60.6585938,23.0195312 C61.4059896,23.7773438 62.38125,24.15625 63.584375,24.15625 Z M65.1,18.984375 L61.4828125,18.984375 C61.5713542,18.3333333 61.7757813,17.8255208 62.0960938,17.4609375 C62.4164063,17.0963542 62.8369792,16.9140625 63.3578125,16.9140625 C63.8838542,16.9140625 64.2953125,17.0768229 64.5921875,17.4023438 C64.8890625,17.7278646 65.0583333,18.2083333 65.1,18.84375 L65.1,18.84375 L65.1,18.984375 Z M75.7265625,24 L75.7265625,17.875 C76.0442708,17.2552083 76.5833333,16.9453125 77.34375,16.9453125 C78.3333333,16.9453125 78.8411458,17.4427083 78.8671875,18.4375 L78.8671875,18.4375 L78.8671875,24 L80.765625,24 L80.7578125,18.203125 C80.8671875,17.828125 81.0585938,17.5247396 81.3320313,17.2929688 C81.6054688,17.0611979 81.9583333,16.9453125 82.390625,16.9453125 C82.9322917,16.9453125 83.3203125,17.0703125 83.5546875,17.3203125 C83.7890625,17.5703125 83.90625,17.9635417 83.90625,18.5 L83.90625,18.5 L83.90625,24 L85.8046875,24 L85.8046875,18.4453125 C85.7942708,17.4401042 85.5611979,16.6796875 85.1054688,16.1640625 C84.6497396,15.6484375 83.9557292,15.390625 83.0234375,15.390625 C81.9088542,15.390625 81.0442708,15.8229167 80.4296875,16.6875 C80.0130208,15.8229167 79.2395833,15.390625 78.109375,15.390625 C77.078125,15.390625 76.265625,15.7369792 75.671875,16.4296875 L75.671875,16.4296875 L75.6171875,15.546875 L73.828125,15.546875 L73.828125,24 L75.7265625,24 Z M92.0359375,24.15625 C92.8171875,24.15625 93.5059896,23.9765625 94.1023438,23.6171875 C94.6986979,23.2578125 95.1570313,22.75 95.4773438,22.09375 C95.7976563,21.4375 95.9578125,20.6927083 95.9578125,19.859375 L95.9578125,19.859375 L95.95,19.4140625 C95.8927083,18.2005208 95.5085938,17.2265625 94.7976563,16.4921875 C94.0867188,15.7578125 93.1609375,15.390625 92.0203125,15.390625 C91.2494792,15.390625 90.5671875,15.5690104 89.9734375,15.9257812 C89.3796875,16.2825521 88.91875,16.7929688 88.590625,17.4570312 C88.2625,18.1210938 88.0984375,18.8671875 88.0984375,19.6953125 L88.0984375,19.6953125 L88.0984375,19.7890625 C88.0984375,21.1119792 88.4565104,22.1705729 89.1726563,22.9648438 C89.8888021,23.7591146 90.8432292,24.15625 92.0359375,24.15625 Z M92.0359375,22.640625 C91.3953125,22.640625 90.8953125,22.3945312 90.5359375,21.9023438 C90.1765625,21.4101562 89.996875,20.7291667 89.996875,19.859375 C89.996875,18.8802083 90.1791667,18.1445312 90.54375,17.6523438 C90.9083333,17.1601562 91.4005208,16.9140625 92.0203125,16.9140625 C92.6505208,16.9140625 93.1492188,17.1640625 93.5164063,17.6640625 C93.8835938,18.1640625 94.0671875,18.8411458 94.0671875,19.6953125 C94.0671875,20.6588542 93.8888021,21.390625 93.5320313,21.890625 C93.1752604,22.390625 92.6765625,22.640625 92.0359375,22.640625 Z M100.157813,24 L100.157813,18.21875 C100.459896,17.5520833 101.045833,17.21875 101.915625,17.21875 C102.18125,17.21875 102.439063,17.2395833 102.689063,17.28125 L102.689063,17.28125 L102.696875,15.5 C102.519792,15.4270833 102.295833,15.390625 102.025,15.390625 C101.2125,15.390625 100.577083,15.7578125 100.11875,16.4921875 L100.11875,16.4921875 L100.071875,15.546875 L98.259375,15.546875 L98.259375,24 L100.157813,24 Z M108.1625,24.15625 C108.865625,24.15625 109.49974,24.0169271 110.064844,23.7382812 C110.629948,23.4596354 111.081771,23.0677083 111.420313,22.5625 L111.420313,22.5625 L110.396875,21.5859375 C109.85,22.2890625 109.141667,22.640625 108.271875,22.640625 C107.652083,22.640625 107.13776,22.4375 106.728906,22.03125 C106.320052,21.625 106.086979,21.0729167 106.029688,20.375 L106.029688,20.375 L111.553125,20.375 L111.553125,19.609375 C111.553125,18.265625 111.239323,17.2265625 110.611719,16.4921875 C109.984115,15.7578125 109.094792,15.390625 107.94375,15.390625 C107.219792,15.390625 106.563542,15.5755208 105.975,15.9453125 C105.386458,16.3151042 104.929427,16.8320312 104.603906,17.4960938 C104.278385,18.1601562 104.115625,18.9140625 104.115625,19.7578125 L104.115625,19.7578125 L104.115625,19.9921875 C104.115625,21.2526042 104.489323,22.2617188 105.236719,23.0195312 C105.984115,23.7773438 106.959375,24.15625 108.1625,24.15625 Z M109.678125,18.984375 L106.060938,18.984375 C106.149479,18.3333333 106.353906,17.8255208 106.674219,17.4609375 C106.994531,17.0963542 107.415104,16.9140625 107.935938,16.9140625 C108.461979,16.9140625 108.873438,17.0768229 109.170313,17.4023438 C109.467188,17.7278646 109.636458,18.2083333 109.678125,18.84375 L109.678125,18.84375 L109.678125,18.984375 Z" id="Seemore" fill="#FFFFFF" fill-rule="nonzero"></path>
            </g>
        </g>
    </g>
</svg>